<?xml version="1.0" standalone="no"?>
<!DOCTYPE svg PUBLIC "-//W3C//DTD SVG 20010904//EN"
 "http://www.w3.org/TR/2001/REC-SVG-20010904/DTD/svg10.dtd">
<svg version="1.0" xmlns="http://www.w3.org/2000/svg"
 width="500.000000pt" height="400.000000pt" viewBox="0 0 500.000000 400.000000"
 preserveAspectRatio="xMidYMid meet">

<g transform="translate(0.000000,400.000000) scale(0.100000,-0.100000)"
fill="#000000" stroke="none">
<path d="M1506 3204 c-14 -14 -16 -67 -16 -435 0 -344 -2 -419 -13 -419 -19 0
-41 28 -64 80 -22 50 -76 109 -101 111 -9 1 -51 1 -93 -1 -123 -3 -179 37
-179 129 0 16 -5 52 -12 79 -11 49 -10 51 17 75 16 14 25 29 21 35 -11 18 -33
14 -41 -5 -7 -17 -8 -16 -15 2 -5 11 -9 32 -9 48 -1 44 -31 35 -31 -10 l0 -37
-30 29 c-26 25 -30 26 -36 11 -4 -11 3 -27 22 -47 31 -33 26 -37 -17 -12 -15
9 -32 14 -36 9 -13 -13 13 -41 55 -56 22 -9 43 -18 46 -21 3 -3 11 -41 17 -85
15 -108 31 -138 87 -166 39 -19 61 -22 134 -21 105 3 121 -7 166 -100 31 -65
62 -97 94 -97 17 0 18 -15 18 -188 0 -170 2 -191 18 -205 17 -16 99 -17 969
-17 908 0 951 1 966 18 15 16 17 46 17 209 l0 191 31 11 c18 6 55 11 83 11 76
0 98 15 121 85 25 73 57 97 151 115 72 14 127 51 138 93 3 12 26 37 51 55 28
20 45 39 45 52 0 23 -28 27 -36 5 -4 -9 -15 -20 -25 -26 -18 -9 -18 -8 1 23
11 18 20 39 20 46 0 23 -30 12 -43 -15 l-12 -27 -5 34 c-7 50 -34 47 -40 -5
-5 -35 -6 -38 -16 -21 -8 12 -18 17 -28 13 -16 -6 -16 -9 1 -38 10 -17 25 -35
35 -40 20 -11 14 -40 -15 -67 -12 -11 -51 -28 -87 -37 -109 -28 -150 -60 -175
-136 -9 -27 -22 -52 -28 -56 -7 -5 -47 -10 -90 -13 l-77 -5 0 417 c0 402 -1
418 -19 428 -11 5 -69 10 -130 10 l-111 0 0 -50 0 -50 48 0 c87 0 82 37 82
-569 0 -348 -4 -539 -10 -552 -10 -19 -30 -19 -845 -19 -815 0 -835 0 -845 19
-6 13 -10 205 -10 554 0 505 1 535 18 550 17 16 84 17 760 17 l742 0 0 50 0
50 -809 0 c-723 0 -811 -2 -825 -16z m992 -31 c5 -18 -28 -29 -38 -12 -5 7 -6
17 -3 22 7 12 35 5 41 -10z"/>
<path d="M2070 2693 c0 -4 14 -22 32 -40 l32 -33 -34 -35 c-26 -27 -31 -38
-22 -47 9 -9 20 -4 47 22 l35 34 33 -32 c18 -18 36 -32 40 -32 16 0 6 28 -18
50 -14 13 -25 29 -25 35 0 6 11 22 25 35 14 13 25 29 25 37 0 21 -25 15 -50
-12 -13 -14 -29 -25 -35 -25 -6 0 -22 11 -35 25 -22 24 -50 34 -50 18z"/>
<path d="M2710 2688 c0 -7 14 -26 30 -43 l30 -31 -30 -29 c-28 -27 -40 -55
-23 -55 4 0 22 14 40 32 l33 32 33 -32 c58 -56 81 -33 25 25 l-32 33 32 33
c18 18 32 36 32 40 0 17 -28 5 -55 -23 l-29 -30 -31 30 c-32 31 -55 39 -55 18z"/>
<path d="M2043 2378 c3 -10 98 -13 432 -13 334 0 429 3 433 13 3 9 -88 12
-433 12 -345 0 -436 -3 -432 -12z"/>
<path d="M1532 1820 c-12 -19 -10 -20 57 -20 65 0 81 7 81 36 0 2 -28 4 -63 4
-51 0 -64 -3 -75 -20z"/>
<path d="M1707 1833 c-4 -3 -7 -12 -7 -20 0 -10 43 -13 215 -13 208 0 215 1
215 20 0 19 -7 20 -208 20 -115 0 -212 -3 -215 -7z"/>
<path d="M2177 1833 c-4 -3 -7 -12 -7 -20 0 -10 58 -13 306 -13 286 0 305 1
302 18 -3 16 -27 17 -299 20 -162 1 -298 -1 -302 -5z"/>
<path d="M2820 1820 c0 -19 6 -20 216 -20 200 0 215 1 212 18 -3 15 -23 17
-216 20 -207 2 -212 2 -212 -18z"/>
<path d="M3284 1824 c3 -9 6 -18 6 -20 0 -2 32 -4 70 -4 68 0 70 1 58 20 -11
17 -24 20 -76 20 -54 0 -63 -2 -58 -16z"/>
<path d="M1485 1748 l-15 -23 61 -3 c72 -4 84 0 99 27 10 20 8 21 -59 21 -61
0 -72 -3 -86 -22z"/>
<path d="M1676 1754 c-3 -9 -6 -20 -6 -25 0 -6 89 -8 223 -7 222 3 222 3 225
26 l3 22 -219 0 c-191 0 -221 -2 -226 -16z"/>
<path d="M2160 1745 l0 -25 315 0 315 0 0 25 0 25 -315 0 -315 0 0 -25z"/>
<path d="M2832 1748 l3 -23 223 -3 223 -2 -3 22 -3 23 -223 3 -223 2 3 -22z"/>
<path d="M3322 1748 c13 -20 26 -23 87 -26 73 -3 84 3 53 31 -14 12 -37 17
-87 17 l-67 0 14 -22z"/>
<path d="M1426 1665 l-16 -25 83 0 c80 0 84 1 95 25 l12 25 -79 0 c-73 0 -80
-2 -95 -25z"/>
<path d="M1640 1671 c-5 -11 -10 -22 -10 -25 0 -3 106 -6 235 -6 136 0 235 4
235 9 0 5 3 16 6 25 5 14 -18 16 -225 16 -217 0 -231 -1 -241 -19z"/>
<path d="M2146 1674 c-3 -9 -6 -20 -6 -25 0 -5 138 -9 335 -9 197 0 335 4 335
9 0 41 3 41 -335 41 -285 0 -324 -2 -329 -16z"/>
<path d="M2844 1674 c3 -9 6 -20 6 -25 0 -5 99 -9 235 -9 129 0 235 3 235 6 0
3 -5 14 -10 25 -10 18 -24 19 -241 19 -207 0 -230 -2 -225 -16z"/>
<path d="M3362 1665 c11 -24 15 -25 95 -25 l83 0 -16 25 c-15 23 -22 25 -95
25 l-79 0 12 -25z"/>
<path d="M1284 1556 c-3 -7 -4 -35 -2 -62 l3 -49 1190 0 1190 0 0 60 0 60
-1188 3 c-1003 2 -1188 0 -1193 -12z"/>
<path d="M2033 1038 c-59 -28 -70 -155 -19 -206 22 -23 35 -27 80 -27 64 0 91
19 106 77 15 52 2 107 -31 140 -22 22 -36 28 -71 27 -24 0 -53 -5 -65 -11z
m98 -47 c32 -26 34 -105 5 -127 -72 -52 -143 47 -85 120 24 31 48 33 80 7z"/>
<path d="M2249 1021 c-25 -25 -29 -37 -29 -85 0 -67 15 -103 51 -122 57 -29
134 -9 157 41 17 36 15 110 -3 145 -20 38 -43 50 -100 50 -38 0 -52 -5 -76
-29z m121 -31 c27 -27 28 -100 0 -125 -25 -23 -70 -23 -87 1 -7 10 -13 37 -13
61 0 48 26 83 60 83 11 0 29 -9 40 -20z"/>
<path d="M2660 1028 c-25 -27 -26 -70 -2 -90 9 -9 39 -22 67 -30 58 -16 71
-41 30 -60 -22 -10 -30 -8 -55 10 -36 27 -60 28 -60 4 0 -44 85 -75 143 -53
35 14 54 53 41 89 -7 21 -22 31 -69 47 -46 16 -60 25 -60 40 0 26 46 33 68 11
19 -19 57 -21 57 -3 0 8 -10 23 -23 35 -33 31 -108 31 -137 0z"/>
<path d="M2450 925 l0 -115 24 0 c22 0 25 5 28 43 l3 42 45 3 c57 4 80 25 80
72 0 56 -22 70 -108 70 l-72 0 0 -115z m135 55 c9 -30 -2 -40 -46 -40 -37 0
-39 2 -39 30 0 28 2 30 39 30 31 0 41 -4 46 -20z"/>
<path d="M2840 835 c0 -20 5 -25 25 -25 20 0 25 5 25 25 0 20 -5 25 -25 25
-20 0 -25 -5 -25 -25z"/>
<path d="M2900 835 c0 -20 5 -25 25 -25 20 0 25 5 25 25 0 20 -5 25 -25 25
-20 0 -25 -5 -25 -25z"/>
<path d="M2970 835 c0 -20 5 -25 25 -25 20 0 25 5 25 25 0 20 -5 25 -25 25
-20 0 -25 -5 -25 -25z"/>
<path d="M1690 440 l0 -130 25 0 c20 0 25 5 25 24 0 13 6 29 14 35 10 9 18 4
37 -24 19 -28 31 -35 57 -35 l33 0 -40 53 -40 52 34 35 c42 43 43 50 8 50 -20
0 -38 -12 -65 -42 l-37 -43 -1 78 c0 75 -1 77 -25 77 l-25 0 0 -130z"/>
<path d="M3910 523 c0 -37 -3 -44 -12 -35 -22 22 -75 14 -97 -14 -32 -40 -29
-117 5 -151 20 -20 31 -24 57 -19 18 4 47 6 65 6 l32 -1 0 131 0 130 -25 0
c-23 0 -25 -4 -25 -47z m-16 -79 c36 -36 6 -116 -35 -94 -27 15 -34 55 -15 85
19 29 29 31 50 9z"/>
<path d="M1020 436 l0 -126 75 0 c62 0 79 4 95 20 24 24 26 67 3 92 -13 14
-14 21 -5 30 17 17 15 73 -3 88 -9 7 -49 15 -90 18 l-75 5 0 -127z m124 58 c9
-23 -2 -34 -35 -34 -24 0 -29 4 -29 25 0 21 5 25 29 25 17 0 31 -6 35 -16z
m-19 -84 c40 -15 31 -54 -12 -58 -32 -3 -33 -2 -33 32 0 39 5 41 45 26z"/>
<path d="M2180 435 l0 -125 26 0 27 0 -5 85 c-3 53 -1 82 5 76 5 -5 28 -42 51
-83 39 -68 44 -73 79 -76 l37 -3 0 125 0 126 -25 0 c-24 0 -24 -2 -27 -87 l-3
-88 -50 87 c-47 82 -52 88 -82 88 l-33 0 0 -125z"/>
<path d="M2920 435 l0 -125 30 0 c29 0 30 2 30 45 l0 45 40 0 c36 0 40 3 40
25 0 23 -4 25 -40 25 -38 0 -40 2 -40 30 0 29 2 30 45 30 41 0 45 2 45 25 0
24 -2 25 -75 25 l-75 0 0 -125z"/>
<path d="M2690 515 c-5 -14 -14 -25 -20 -25 -5 0 -10 -7 -10 -15 0 -8 5 -15
10 -15 6 0 10 -26 10 -58 0 -77 19 -104 68 -100 30 2 38 8 40 26 3 18 -1 22
-22 22 -28 0 -40 26 -34 76 2 23 9 30 31 32 19 2 27 9 27 23 0 14 -7 19 -30
19 -23 0 -30 4 -30 20 0 28 -29 25 -40 -5z"/>
<path d="M1277 480 c-32 -26 -42 -78 -23 -125 26 -61 99 -74 147 -26 21 22 29
39 29 66 0 42 -22 90 -45 99 -32 12 -83 6 -108 -14z m79 -28 c30 -20 26 -85
-6 -102 -26 -14 -50 13 -50 54 0 45 27 68 56 48z"/>
<path d="M1492 480 c-70 -65 -19 -189 72 -177 57 8 81 37 81 98 0 43 -4 54
-28 75 -36 31 -94 32 -125 4z m86 -32 c19 -19 15 -85 -5 -97 -30 -16 -53 5
-53 47 0 38 14 62 35 62 6 0 16 -5 23 -12z"/>
<path d="M1918 489 c-21 -12 -24 -63 -5 -79 6 -6 27 -20 45 -31 42 -25 32 -43
-19 -34 -34 6 -39 4 -39 -13 0 -23 18 -32 64 -32 94 0 104 95 13 129 -42 16
-34 35 12 27 31 -5 40 -2 45 11 4 9 1 20 -6 25 -18 11 -89 9 -110 -3z"/>
<path d="M2475 475 c-43 -42 -30 -140 22 -164 32 -15 58 -14 92 4 34 17 41 32
41 91 0 61 -32 94 -90 94 -30 0 -47 -6 -65 -25z m99 -46 c14 -41 0 -79 -29
-79 -41 0 -61 63 -29 95 22 22 47 15 58 -16z"/>
<path d="M3130 480 c-42 -42 -38 -125 8 -161 21 -16 36 -20 66 -16 57 8 81 37
81 98 0 43 -4 54 -28 75 -36 31 -98 33 -127 4z m88 -32 c7 -7 12 -29 12 -50 0
-70 -70 -71 -72 -1 -2 51 32 79 60 51z"/>
<path d="M3330 420 c0 -68 3 -83 21 -101 16 -16 28 -20 52 -14 18 3 49 6 70 5
l37 0 0 95 0 95 -30 0 -30 0 0 -70 c0 -58 -3 -71 -19 -80 -34 -17 -51 12 -51
86 0 62 -1 64 -25 64 -25 0 -25 -1 -25 -80z"/>
<path d="M3560 405 c0 -95 0 -95 25 -95 24 0 25 3 25 53 0 55 20 97 46 97 20
0 34 -41 34 -101 0 -46 2 -49 25 -49 24 0 25 2 25 73 0 91 -15 117 -69 117
-20 0 -42 -5 -48 -11 -8 -8 -13 -8 -17 0 -4 6 -16 11 -27 11 -17 0 -19 -8 -19
-95z"/>
</g>
</svg>
